<?xml version="1.0" encoding="UTF-8"?>
<svg id="Livello_2" data-name="Livello 2" xmlns="http://www.w3.org/2000/svg" version="1.1" viewBox="0 0 50 50">
  <defs>
    <style>
      .cls-1 {
        fill: #000;
        stroke-width: 0px;
      }
    </style>
  </defs>
  <path class="cls-1" d="M48.5,4.1H1.5C.7,4.1,0,4.8,0,5.6v38.8C0,45.2.7,45.9,1.5,45.9h47.1c.8,0,1.5-.7,1.5-1.5V5.6c0-.8-.7-1.5-1.5-1.5ZM18.8,29.9v-9.8c0-.7.4-1.3,1-1.7.7-.3,1.5-.3,2.1.1l8.4,4.9s0,0,.1,0c.5.4.8.9.8,1.5s-.3,1.1-.8,1.5c0,0,0,0-.1,0l-8.4,4.9c-.3.2-.7.3-1.1.3s-.6,0-.9-.2c-.6-.3-1-1-1-1.7ZM34.4,9.6v-2.6h4.9v2.6h-4.9ZM31.5,9.6h-4.9v-2.6h4.9v2.6ZM23.6,9.6h-4.9v-2.6h4.9v2.6ZM15.8,9.6h-4.9v-2.6h4.9v2.6ZM15.8,40.4v2.6h-4.9v-2.6h4.9ZM18.7,40.4h4.9v2.6h-4.9v-2.6ZM26.6,40.4h4.9v2.6h-4.9v-2.6ZM34.4,40.4h4.9v2.6h-4.9v-2.6ZM47.1,9.6h-4.8v-2.6h4.8v2.6ZM7.9,7.1v2.6H2.9v-2.6h5ZM2.9,40.4h5v2.6H2.9v-2.6ZM42.2,42.9v-2.6h4.8v2.6h-4.8Z"/>
</svg>