<?xml version="1.0" encoding="UTF-8"?>
<svg id="Livello_2" data-name="Livello 2" xmlns="http://www.w3.org/2000/svg" version="1.1" viewBox="0 0 225.9 95.4">
  <defs>
    <style>
      .cls-1 {
        fill: #fff;
        stroke-width: 0px;
      }
    </style>
  </defs>
  <g id="Livello_1-2" data-name="Livello 1-2">
    <g>
      <path class="cls-1" d="M31.1,2.7C15.9,1.9,3.5,2.7,3.5,2.7,3.5,2.7-.3,47.9,0,51.6c0,0,14.7,25.7,15.8,38,0,.4.1.8.3,1.2.2.4.5.8.8.8v-41.4c-1-.2-1.8-1.1-1.8-2.2s1-2.2,2.2-2.2,2.2,1,2.2,2.2-.8,2-1.9,2.2v41.4c.4,0,.6-.4.8-.8.2-.4.3-.8.3-1.2,1.1-12.3,15.8-38,15.8-38,.3-3.7-3.5-48.9-3.5-48.9h0ZM5.5,39.5h-2.8v-1.5h2.8v1.5ZM5.6,33.2h-2.8v-1.5h2.8v1.5ZM5.7,26.9h-2.8v-1.5h2.8v1.5ZM6.1,20.6h-2.8v-1.5h2.8v1.5ZM6.1,14.2h-2.8v-1.5h2.8v1.5ZM6.3,7.9h-2.8v-1.5h2.8v1.5ZM27.3,41.6c-5.9,1.7-13.7,1.7-20.1,0v-10.8h20.1v10.8ZM27.3,28.9H7.3v-11.9h20.1v11.9h0ZM27.3,15.2H7.3V4.4s9.9-.6,20.1,0v10.8h0ZM28.4,6.5h2.8v1.5h-2.8v-1.5ZM28.5,12.8h2.8v1.5h-2.8v-1.5ZM28.6,19.1h2.8v1.5h-2.8v-1.5ZM29,25.4h2.8v1.5h-2.8v-1.5ZM29,31.7h2.8v1.5h-2.8v-1.5ZM32,39.5h-2.8v-1.5h2.8v1.5Z"/>
      <g>
        <path class="cls-1" d="M45.8,9.9h-2.3l-.7,3.4h-1.6l2.4-11h2.2l2.4,11h-1.6l-.7-3.4h0ZM45.5,8.6l-.8-3.9c-.3,1.3-.6,2.6-.8,3.9,0,0,1.7,0,1.7,0Z"/>
        <path class="cls-1" d="M53.1,5.8v-.7c0-.2-.2-1.4-1.3-1.4s-1.3,1.1-1.3,1.4v.7c0,.1.2,1,1.5,1.4,2.6.9,2.6,2.6,2.6,2.7v.7c0,0,0,.7-.3,1.3-.5.9-1.3,1.4-2.5,1.4s-2-.5-2.5-1.4c-.3-.7-.3-1.3-.3-1.3v-.7h1.6v.7c0,.2.2,1.4,1.3,1.4s1.3-1.1,1.3-1.4v-.7c0,0-.2-.9-1.5-1.4-2.5-.9-2.6-2.6-2.6-2.7v-.7c0,0,0-.7.3-1.3.5-.9,1.3-1.4,2.5-1.4s2,.5,2.5,1.4c.3.7.3,1.3.3,1.3v.7s-1.6,0-1.6,0Z"/>
        <path class="cls-1" d="M59.8,5.8v-.7c0-.2-.2-1.4-1.3-1.4s-1.3,1.1-1.3,1.4v.7c0,.1.2,1,1.5,1.4,2.6.9,2.6,2.6,2.6,2.7v.7c0,0,0,.7-.3,1.3-.5.9-1.3,1.4-2.5,1.4s-2-.5-2.5-1.4c-.3-.7-.3-1.3-.3-1.3v-.7h1.6v.7c0,.2.2,1.4,1.3,1.4s1.3-1.1,1.3-1.4v-.7c0,0-.2-.9-1.5-1.4-2.5-.9-2.6-2.6-2.6-2.7v-.7c0,0,0-.7.3-1.3.5-.9,1.3-1.4,2.5-1.4s2,.5,2.5,1.4c.3.7.3,1.3.3,1.3v.7s-1.6,0-1.6,0Z"/>
        <path class="cls-1" d="M62.6,11.9c-.3-.7-.3-1.3-.3-1.3v-5.5c0,0,0-.7.3-1.3.5-.9,1.3-1.4,2.5-1.4s2,.5,2.5,1.4c.3.7.3,1.3.3,1.3v5.5c0,0,0,.7-.3,1.3-.5.9-1.3,1.4-2.5,1.4s-2-.5-2.5-1.4ZM63.8,10.6c0,.2.2,1.4,1.3,1.4s1.3-1.1,1.3-1.4v-5.5c0-.2-.2-1.4-1.3-1.4s-1.3,1.1-1.3,1.4v5.5Z"/>
        <path class="cls-1" d="M69.2,11.9c-.3-.7-.3-1.3-.3-1.3v-5.5c0,0,0-.7.3-1.3.5-.9,1.3-1.4,2.5-1.4s2,.5,2.5,1.4c.3.7.3,1.3.3,1.3v.7h-1.6v-.7c0-.2-.2-1.4-1.3-1.4s-1.3,1.1-1.3,1.4v5.5c0,.2.2,1.4,1.3,1.4s1.3-1.1,1.3-1.4v-.7h1.6v.7c0,0,0,.7-.3,1.3-.5.9-1.3,1.4-2.5,1.4s-2.1-.5-2.5-1.4Z"/>
        <path class="cls-1" d="M77,2.4v11h-1.6V2.4h1.6Z"/>
        <path class="cls-1" d="M82.5,9.9h-2.3l-.7,3.4h-1.6l2.4-11h2.2l2.4,11h-1.6l-.7-3.4h0ZM82.2,8.6l-.8-3.9c-.3,1.3-.6,2.6-.8,3.9h1.7Z"/>
        <path class="cls-1" d="M91.5,3.9l-4.1,8.1h4.1v1.4h-5.7v-1.5l4.1-8.1h-4.1v-1.4h5.7v1.5Z"/>
        <path class="cls-1" d="M93.9,2.4v11h-1.6V2.4h1.6Z"/>
        <path class="cls-1" d="M95.2,11.9c-.3-.7-.3-1.3-.3-1.3v-5.5c0,0,0-.7.3-1.3.5-.9,1.3-1.4,2.5-1.4s2,.5,2.5,1.4c.3.7.3,1.3.3,1.3v5.5c0,0,0,.7-.3,1.3-.5.9-1.3,1.4-2.5,1.4s-2-.5-2.5-1.4ZM96.4,10.6c0,.2.2,1.4,1.3,1.4s1.3-1.1,1.3-1.4v-5.5c0-.2-.2-1.4-1.3-1.4s-1.3,1.1-1.3,1.4v5.5Z"/>
        <path class="cls-1" d="M107.2,13.4h-1.9l-2.2-6.9v6.9h-1.6V2.4h1.9l2.2,6.9V2.4h1.6v11Z"/>
        <path class="cls-1" d="M109.6,3.7v3.4h2.6v1.4h-2.6v3.4h3.4v1.4h-5V2.4h5v1.4s-3.4,0-3.4,0Z"/>
      </g>
      <g>
        <path class="cls-1" d="M55.8,49.7v4.3h-13.7V19.1h4.9v30.6h8.7Z"/>
        <path class="cls-1" d="M59.8,49.5c-1-2.2-1.1-4-1.1-4.2v-26.2h4.9v26.2c0,.8.6,4.4,4.1,4.4s4-3.6,4-4.4v-26.2h5v26.2c0,.2,0,2.1-1.1,4.2-1.4,2.9-4.3,4.5-7.9,4.5s-6.5-1.6-7.9-4.5h0Z"/>
        <path class="cls-1" d="M80.8,49.5c-1.1-2.2-1.1-4-1.1-4.2v-17.5c0-.2,0-2.1,1.1-4.2,1.4-2.9,4.3-4.5,7.9-4.5s6.5,1.6,7.9,4.5c1.1,2.1,1.1,4,1.1,4.2v2.2h-5v-2.2c0-.8-.5-4.3-4-4.3s-4.1,3.6-4.1,4.3v17.5c0,.8.6,4.4,4.1,4.4s4-3.6,4-4.4v-2.2h5v2.2c0,.2,0,2.1-1.1,4.2-1.4,2.9-4.3,4.5-7.9,4.5s-6.5-1.6-7.9-4.5Z"/>
        <path class="cls-1" d="M105.6,19.1v34.9h-4.9V19.1h4.9Z"/>
        <path class="cls-1" d="M123.2,43.1h-7.3l-2.3,10.9h-5l7.5-34.9h7.1l7.5,34.9h-5s-2.3-10.9-2.4-10.9ZM122.2,38.7l-2.7-12.5c-.9,4.2-1.8,8.3-2.7,12.5h5.4Z"/>
        <path class="cls-1" d="M151.5,54h-6l-7.1-22v22h-4.9V19.1h6l7.1,22v-22h5v34.9h0Z"/>
        <path class="cls-1" d="M155.5,49.5c-1.1-2.2-1.1-4-1.1-4.2v-17.5c0-.2,0-2.1,1.1-4.2,1.4-2.9,4.3-4.5,7.9-4.5s6.5,1.6,7.9,4.5c1.1,2.1,1.1,4,1.1,4.2v17.5c0,.2,0,2.1-1.1,4.2-1.4,2.9-4.3,4.5-7.9,4.5s-6.5-1.6-7.9-4.5ZM159.3,45.3c0,.8.6,4.4,4.1,4.4s4-3.6,4-4.4v-17.5c0-.8-.5-4.3-4-4.3s-4.1,3.6-4.1,4.3v17.5Z"/>
      </g>
      <g>
        <path class="cls-1" d="M64.2,56.7l-7.5,34.9h-7.1l-7.5-34.9h5l6,27.8,6-27.8h5.1Z"/>
        <path class="cls-1" d="M72,56.7v34.9h-4.9v-34.9h4.9Z"/>
        <path class="cls-1" d="M93,91.6h-6l-7.1-22v22h-4.9v-34.9h6l7.1,22v-22h5v34.9Z"/>
        <path class="cls-1" d="M97,87.1c-1.1-2.2-1.1-4-1.1-4.2v-17.5c0-.2,0-2.1,1.1-4.2,1.4-2.9,4.3-4.5,7.9-4.5s6.5,1.6,7.9,4.5c1.1,2.2,1.1,4,1.1,4.2v2.2h-5v-2.2c0-.8-.5-4.3-4-4.3s-4.1,3.6-4.1,4.3v17.5c0,.8.6,4.4,4.1,4.4s4-3.6,4-4.4v-2.2h5v2.2c0,.2,0,2.1-1.1,4.2-1.4,2.9-4.3,4.5-7.9,4.5s-6.5-1.6-7.9-4.5Z"/>
        <path class="cls-1" d="M121.8,61.1v10.9h8.1v4.4h-8.1v10.9h10.9v4.3h-15.9v-34.9h15.9v4.4h-10.9,0Z"/>
        <path class="cls-1" d="M153.7,91.6h-6l-7.1-22v22h-4.9v-34.9h6l7.1,22v-22h5v34.9h0Z"/>
        <path class="cls-1" d="M174.7,61.5l-12.9,25.8h12.9v4.3h-18.1v-4.8l12.9-25.8h-12.9v-4.4h18.1v4.8Z"/>
        <path class="cls-1" d="M178.7,87.1c-1.1-2.2-1.1-4-1.1-4.2v-17.5c0-.2,0-2.1,1.1-4.2,1.4-2.9,4.3-4.5,7.9-4.5s6.5,1.6,7.9,4.5c1.1,2.2,1.1,4,1.1,4.2v17.5c0,.2,0,2.1-1.1,4.2-1.4,2.9-4.3,4.5-7.9,4.5s-6.5-1.6-7.9-4.5ZM182.5,82.9c0,.8.6,4.4,4.1,4.4s4-3.6,4-4.4v-17.5c0-.8-.5-4.3-4-4.3s-4.1,3.6-4.1,4.3v17.5Z"/>
        <path class="cls-1" d="M216.6,91.6h-6l-7.1-22v22h-4.9v-34.9h6l7.1,22v-22h5v34.9h0Z"/>
        <path class="cls-1" d="M224.4,56.7v34.9h-4.9v-34.9h4.9Z"/>
      </g>
    </g>
  </g>
</svg>