<?xml version="1.0" encoding="UTF-8"?>
<svg id="Livello_2" data-name="Livello 2" xmlns="http://www.w3.org/2000/svg" version="1.1" viewBox="0 0 50 50">
  <defs>
    <style>
      .cls-1, .cls-2 {
        fill: #000;
        stroke-width: 0px;
      }

      .cls-2 {
        fill-rule: evenodd;
      }
    </style>
  </defs>
  <path class="cls-2" d="M34.8,20c.2,1.6.2,3.2.2,5s-.3,1.3-.7,1.8-1.1.7-1.8.7-1.3-.3-1.8-.7-.7-1.1-.7-1.8c0-1.8,0-3.4-.3-5h-9.5c-.3,3.3-.4,6.7,0,10h4.8c.7,0,1.3.3,1.8.7s.7,1.1.7,1.8-.3,1.3-.7,1.8-1.1.7-1.8.7h-4c1.2,5.2,3,8.5,4,10,0,0,2,0,2.3,0,.7,0,1.3.2,1.8.6.5.4.8,1,.9,1.7,0,.7-.2,1.3-.6,1.8-.4.5-1,.8-1.7.9-.2,0-2.7,0-2.7,0C11.2,50,0,38.8,0,25S11.2,0,25,0s25,11.2,25,25,0,1.9-.2,2.8c0,.6-.4,1.2-1,1.6-.5.4-1.2.6-1.8.5-.6,0-1.2-.4-1.6-.9-.4-.5-.6-1.1-.6-1.8,0-.7.2-1.5.2-2.2,0-1.7-.2-3.4-.7-5h-9.6ZM25,5.1c-1,1.5-2.8,4.8-3.9,9.9h7.8c-1.2-5.1-3-8.4-3.9-9.9ZM5.7,30h9.5c-.1-1.6-.2-3.2-.2-5,0-1.7,0-3.3.2-5H5.7c-.4,1.6-.7,3.3-.7,5,0,1.7.2,3.4.7,5ZM7.7,35c2.5,4.3,6.4,7.5,11.1,9-1.3-2.9-2.3-5.9-2.9-9H7.7ZM15.9,15c.8-3.8,1.8-6.8,2.9-9-4.7,1.5-8.6,4.7-11.1,9h8.2ZM34,15h8.3c-2.5-4.3-6.5-7.5-11.2-9,1.3,2.9,2.3,5.9,2.9,9Z"/>
  <path class="cls-1" d="M38.1,47.4l-6.4-14c-.5-1.1.6-2.1,1.7-1.7l14,6.4c1,.4,1,1.8,0,2.3l-4.4,2.2c-.2.1-.4.3-.6.6l-2.2,4.4c-.5.9-1.8.9-2.3,0h0Z"/>
</svg>