<?xml version="1.0" encoding="UTF-8"?>
<svg id="Livello_2" data-name="Livello 2" xmlns="http://www.w3.org/2000/svg" version="1.1" viewBox="0 0 10 10">
  <defs>
    <style>
      .cls-1 {
        fill: #000;
      }

      .cls-1, .cls-2, .cls-3, .cls-4, .cls-5, .cls-6, .cls-7 {
        stroke-width: 0px;
      }

      .cls-2 {
        fill: #e5e5e5;
      }

      .cls-3 {
        fill: #b2992b;
      }

      .cls-4 {
        fill: #ceae1c;
      }

      .cls-5 {
        fill: #fff;
      }

      .cls-6 {
        fill: #cbcbcb;
      }

      .cls-7 {
        fill: #fbd353;
      }
    </style>
  </defs>
  <g id="Page-1">
    <g id="_008---Certificate" data-name="008---Certificate">
      <path id="Shape" class="cls-2" d="M7.4,8.4h1.9c.4,0,.7-.3.7-.7V1.5c0-.4-.3-.7-.7-.7H.7C.3.8,0,1.1,0,1.5v6.2C0,8.1.3,8.4.7,8.4h6.7Z"/>
      <path id="Shape-2" data-name="Shape" class="cls-5" d="M6.2,7H1.7c-.4,0-.7-.3-.7-.7v-3.4c0-.4.3-.7.7-.7h4.5v4.8Z"/>
      <path id="Shape-3" data-name="Shape" class="cls-6" d="M6.2,7.2H1.7c-.5,0-.9-.4-.9-.9v-3.4c0-.5.4-.9.9-.9h4.5c0,0,.2,0,.2.2v4.8c0,0,0,.2-.2.2ZM1.7,2.4c-.3,0-.5.2-.5.5v3.4c0,.3.2.5.5.5h4.3V2.4H1.7Z"/>
      <g>
        <path id="Shape-4" data-name="Shape" class="cls-1" d="M4.3,4.8H1.9c0,0-.2,0-.2-.2s0-.2.2-.2h2.4c0,0,.2,0,.2.2s0,.2-.2.2Z"/>
        <path id="Shape-5" data-name="Shape" class="cls-1" d="M4.3,4.1H1.9c0,0-.2,0-.2-.2s0-.2.2-.2h2.4c0,0,.2,0,.2.2s0,.2-.2.2Z"/>
        <path id="Shape-6" data-name="Shape" class="cls-1" d="M4.3,3.4H1.9c0,0-.2,0-.2-.2s0-.2.2-.2h2.4c0,0,.2,0,.2.2s0,.2-.2.2Z"/>
        <path id="Shape-7" data-name="Shape" class="cls-1" d="M1.9,6.5c0,0-.2,0-.2-.1,0,0,0-.2.1-.2.1,0,.2-.1.3-.2,0,0,.1-.2.1-.3,0,0,0-.2.1-.2s.2,0,.2.1c0,.2.2.3.3.4,0,0,0,0,.1,0,0,0,0,0,0,0,0,0,0-.2.1-.2s.2,0,.2.1c0,0,0,.1.2.1h.1c.2.1.5.1.7.1,0,0,.2,0,.2.2,0,0,0,.2-.2.2-.3,0-.6,0-.8-.1h-.1c0,0-.2,0-.3-.1,0,0,0,0-.1,0-.1,0-.3,0-.4,0,0,0-.2-.1-.2-.2,0,0,0,.1-.1.2-.1.1-.3.2-.4.3,0,0,0,0,0,0h0Z"/>
      </g>
      <path id="Shape-8" data-name="Shape" class="cls-3" d="M7.4,7.4v1.7c0,0,0,.1-.1.2,0,0-.1,0-.2,0l-.4-.4-.4.4s-.1,0-.2,0c0,0-.1,0-.1-.2v-4.1s.1,0,.2,0c0,0,0,0,0,0,0,0,0,0,0,0,.1,0,.2,0,.2.2,0,0,.1.2.2.2,0,0,.1,0,.2,0,0,0,0,0,0,0l.3,2.1Z"/>
      <path id="Shape-9" data-name="Shape" class="cls-4" d="M8.4,4.9v2.3c0,0,0,.1-.1.2,0,0-.1,0-.2,0l-.4-.4-.4.4s-.1,0-.2,0c0,0-.1,0-.1-.2v-2.1c.1,0,.3,0,.4,0,0,0,.1,0,.2,0,.1,0,.2,0,.2-.2,0,0,.1-.2.2-.2,0,0,0,0,0,0,0,0,0,0,0,0,0,0,.1,0,.2,0h0Z"/>
      <path id="Shape-10" data-name="Shape" class="cls-7" d="M9.2,3.7s0,.1,0,.2c0,.1,0,.2-.2.2,0,0-.2.1-.2.2,0,0,0,0,0,0,0,0,0,0,0,0,0,.1-.1.3-.3.3-.1,0-.2.1-.3.3,0,0,0,.1,0,.2,0,0-.1,0-.2,0,0,0,0,0,0,0,0,0,0,0,0,0-.1,0-.2,0-.2.2,0,0-.1.2-.2.2,0,0-.1,0-.2,0,0,0-.3,0-.4,0,0,0,0,0,0,0,0,0-.1,0-.2,0-.1,0-.2,0-.2-.2,0,0-.1-.2-.2-.2,0,0,0,0,0,0,0,0,0,0,0,0,0,0-.1,0-.2,0,0,0,0-.1,0-.2,0-.1-.1-.2-.3-.3-.1,0-.3-.1-.3-.3,0,0,0,0,0,0,0,0,0,0,0,0,0-.1,0-.2-.2-.2,0,0-.2-.1-.2-.2,0,0,0-.1,0-.2,0-.1,0-.3,0-.4,0,0,0-.1,0-.2,0-.1,0-.2.2-.2,0,0,.2-.1.2-.2,0,0,0,0,0,0,0,0,0,0,0,0,0-.1.1-.3.3-.3.1,0,.2-.1.3-.3,0-.1.1-.3.3-.3,0,0,0,0,0,0,0,0,0,0,0,0,.1,0,.2,0,.2-.2,0,0,.1-.2.2-.2,0,0,.1,0,.2,0,.1,0,.3,0,.4,0,0,0,.1,0,.2,0s.2,0,.2.1c0,0,.1.2.2.2,0,0,0,0,0,0,0,0,0,0,0,0,.1,0,.3.1.3.3,0,.1.1.2.3.3.1,0,.3.1.3.3,0,0,0,0,0,0,0,0,0,0,0,0,0,.1,0,.2.2.2,0,0,.2.1.2.2,0,0,0,.1,0,.2,0,.1,0,.3,0,.4h0Z"/>
      <circle id="Oval" class="cls-5" cx="7.2" cy="3.6" r="1.2"/>
      <path id="Shape-11" data-name="Shape" class="cls-4" d="M7.2,4.9c-.8,0-1.4-.6-1.4-1.4s.6-1.4,1.4-1.4,1.4.6,1.4,1.4c0,.8-.6,1.4-1.4,1.4ZM7.2,2.5c-.6,0-1,.5-1,1s.5,1,1,1,1-.5,1-1c0-.6-.5-1-1-1Z"/>
    </g>
  </g>
</svg>