<?xml version="1.0" encoding="UTF-8"?>
<svg id="Livello_2" data-name="Livello 2" xmlns="http://www.w3.org/2000/svg" version="1.1" viewBox="0 0 50 50">
  <defs>
    <style>
      .cls-1 {
        fill: #000;
        stroke-width: 0px;
      }
    </style>
  </defs>
  <path class="cls-1" d="M44.4,0H5.6C2.5,0,0,2.5,0,5.6v38.9c0,3.1,2.5,5.6,5.6,5.6h38.9c3.1,0,5.6-2.5,5.6-5.6V5.6c0-3.1-2.5-5.6-5.6-5.6ZM41.4,32.8c-.6.3-1.4.6-2.5.6-2.2,0-5.6-.6-8.3-1.9-4.7.6-8.3,1.1-11.1,2.2q-.3,0-.6.3c-3.3,5.8-6.1,8.6-8.3,8.6s-.8,0-1.1-.3l-1.4-.8v-.3c-.3-.6-.3-.8-.3-1.4.3-1.4,1.9-3.9,5.3-5.8.6-.3,1.4-.8,2.5-1.4.8-1.4,1.7-3.1,2.8-5,1.4-2.8,2.2-5.6,3.1-8.1-1.1-3.3-1.7-5.3-.6-9.2.3-1.1,1.1-2.2,2.2-2.2h.6c.6,0,1.1.3,1.7.6,1.9,1.9,1.1,6.4,0,10v.3c1.1,3.1,2.8,5.6,4.4,7.2.8.6,1.4,1.1,2.5,1.7,1.4,0,2.5-.3,3.6-.3,3.3,0,5.6.6,6.4,1.9.3.6.3,1.1.3,1.7-.3.3-.6,1.1-1.1,1.7Z"/>
  <path class="cls-1" d="M23.6,13.1v-.6c.3-1.4.3-2.5,0-2.8v-.3l-.3-.3s0,.3-.3.3c-.6,1.7-.6,3.6,0,6.1.3-1.1.6-1.7.6-2.5Z"/>
  <path class="cls-1" d="M9.7,40c1.7-.3,3.3-1.9,5-5.3-.6.3-1.1.6-1.4.8-1.9,1.7-3.3,3.6-3.6,4.4Z"/>
  <path class="cls-1" d="M23.3,21.9c-.6,1.9-1.7,4.2-2.8,6.7-.6,1.1-1.1,1.9-1.7,3.1h.6c3.6-1.4,6.9-2.2,9.2-2.5-.6-.3-.8-.6-1.1-.8-1.4-1.7-3.1-3.9-4.2-6.4Z"/>
  <path class="cls-1" d="M40.3,30.6c-.3-.3-1.4-1.1-5.3-1.1h-.6v.3c1.9.8,3.9,1.4,5.3,1.4h.8v-.3s-.3,0-.3-.3Z"/>
</svg>