<?xml version="1.0" encoding="UTF-8"?>
<svg id="Livello_2" data-name="Livello 2" xmlns="http://www.w3.org/2000/svg" viewBox="0 0 225.87 95.42">
  <defs>
    <style>
      .cls-1 {
        fill: #000;
        stroke-width: 0px;
      }
    </style>
  </defs>
  <g id="Livello_1-2" data-name="Livello 1">
    <g>
      <path class="cls-1" d="M31.1,2.72C15.89,1.91,3.49,2.72,3.49,2.72,3.49,2.72-.29,47.94.02,51.64c0,0,14.69,25.67,15.76,37.96.04.43.13.85.31,1.24.18.39.45.78.81.78v-41.42c-1.04-.19-1.82-1.11-1.82-2.2,0-1.24,1-2.24,2.24-2.24s2.24,1,2.24,2.24c0,1.11-.8,2.03-1.86,2.21v41.42c.35,0,.62-.39.8-.78.18-.39.27-.82.31-1.25,1.08-12.29,15.76-37.95,15.76-37.95.31-3.7-3.47-48.93-3.47-48.93ZM5.5,39.5h-2.76v-1.46h2.76v1.46ZM5.61,33.19h-2.76v-1.46h2.76v1.46ZM5.67,26.87h-2.76v-1.46h2.76v1.46ZM6.06,20.56h-2.76v-1.46h2.76v1.46ZM6.07,14.24h-2.76v-1.46h2.76v1.46ZM6.29,7.93h-2.76v-1.46h2.76v1.46ZM27.34,41.56c-5.93,1.71-13.74,1.72-20.07,0v-10.82h20.07v10.82ZM27.34,28.9H7.26v-11.89h20.07v11.89ZM27.34,15.18H7.26V4.36s9.85-.57,20.07,0v10.82ZM28.41,6.47h2.76v1.46h-2.76v-1.46ZM28.53,12.79h2.76v1.46h-2.76v-1.46ZM28.58,19.1h2.76v1.46h-2.76v-1.46ZM28.98,25.41h2.76v1.46h-2.76v-1.46ZM28.98,31.73h2.76v1.46h-2.76v-1.46ZM31.97,39.5h-2.76v-1.46h2.76v1.46Z"/>
      <g>
        <path class="cls-1" d="M45.78,9.92h-2.3l-.74,3.45h-1.59l2.36-11.01h2.23l2.36,11.01h-1.59l-.74-3.45ZM45.48,8.55l-.85-3.95c-.3,1.34-.57,2.61-.85,3.95h1.7Z"/>
        <path class="cls-1" d="M53.14,5.8v-.69c0-.25-.16-1.37-1.27-1.37s-1.29,1.13-1.29,1.37v.69c.02.13.19.96,1.54,1.42,2.56.87,2.6,2.63,2.6,2.71v.69c0,.06-.02.66-.35,1.34-.46.91-1.35,1.42-2.5,1.42s-2.04-.5-2.5-1.42c-.33-.68-.35-1.27-.35-1.34v-.69h1.56v.69c0,.24.17,1.38,1.29,1.38s1.27-1.13,1.27-1.38v-.68c0-.08-.16-.93-1.53-1.42-2.47-.87-2.6-2.64-2.6-2.72v-.69c0-.06.02-.66.35-1.34.46-.91,1.35-1.42,2.5-1.42s2.04.5,2.5,1.42c.33.68.35,1.27.35,1.34v.69h-1.57Z"/>
        <path class="cls-1" d="M59.75,5.8v-.69c0-.25-.16-1.37-1.27-1.37s-1.29,1.13-1.29,1.37v.69c.02.13.19.96,1.54,1.42,2.56.87,2.6,2.63,2.6,2.71v.69c0,.06-.02.66-.35,1.34-.46.91-1.35,1.42-2.5,1.42s-2.04-.5-2.5-1.42c-.33-.68-.35-1.27-.35-1.34v-.69h1.56v.69c0,.24.17,1.38,1.29,1.38s1.27-1.13,1.27-1.38v-.68c0-.08-.16-.93-1.53-1.42-2.47-.87-2.6-2.64-2.6-2.72v-.69c0-.06.02-.66.35-1.34.46-.91,1.35-1.42,2.5-1.42s2.04.5,2.5,1.42c.33.68.35,1.27.35,1.34v.69h-1.57Z"/>
        <path class="cls-1" d="M62.57,11.95c-.33-.68-.35-1.27-.35-1.34v-5.51c0-.06.02-.66.35-1.34.46-.91,1.35-1.42,2.5-1.42s2.04.5,2.5,1.42c.33.68.35,1.27.35,1.34v5.51c0,.06-.02.66-.35,1.34-.46.91-1.35,1.42-2.5,1.42s-2.05-.5-2.5-1.42ZM63.79,10.61c0,.24.17,1.38,1.29,1.38s1.27-1.13,1.27-1.38v-5.51c0-.25-.16-1.37-1.27-1.37s-1.29,1.13-1.29,1.37v5.51Z"/>
        <path class="cls-1" d="M69.18,11.95c-.33-.68-.35-1.27-.35-1.34v-5.51c0-.06.02-.66.35-1.34.46-.91,1.35-1.42,2.5-1.42s2.04.5,2.5,1.42c.33.68.35,1.27.35,1.34v.69h-1.57v-.69c0-.25-.16-1.37-1.27-1.37s-1.29,1.13-1.29,1.37v5.51c0,.24.17,1.38,1.29,1.38s1.27-1.13,1.27-1.38v-.69h1.57v.69c0,.06-.02.66-.35,1.34-.46.91-1.35,1.42-2.5,1.42s-2.05-.5-2.5-1.42Z"/>
        <path class="cls-1" d="M77,2.36v11.01h-1.56V2.36h1.56Z"/>
        <path class="cls-1" d="M82.53,9.92h-2.3l-.74,3.45h-1.59l2.36-11.01h2.23l2.36,11.01h-1.59l-.74-3.45ZM82.23,8.55l-.85-3.95c-.3,1.34-.57,2.61-.85,3.95h1.7Z"/>
        <path class="cls-1" d="M91.47,3.87l-4.06,8.13h4.06v1.37h-5.7v-1.51l4.06-8.12h-4.06v-1.38h5.7v1.51Z"/>
        <path class="cls-1" d="M93.93,2.36v11.01h-1.56V2.36h1.56Z"/>
        <path class="cls-1" d="M95.19,11.95c-.33-.68-.35-1.27-.35-1.34v-5.51c0-.06.02-.66.35-1.34.46-.91,1.35-1.42,2.5-1.42s2.04.5,2.5,1.42c.33.68.35,1.27.35,1.34v5.51c0,.06-.02.66-.35,1.34-.46.91-1.35,1.42-2.5,1.42s-2.04-.5-2.5-1.42ZM96.4,10.61c0,.24.17,1.38,1.29,1.38s1.27-1.13,1.27-1.38v-5.51c0-.25-.16-1.37-1.27-1.37s-1.29,1.13-1.29,1.37v5.51Z"/>
        <path class="cls-1" d="M107.15,13.37h-1.9l-2.23-6.92v6.92h-1.56V2.36h1.89l2.23,6.92V2.36h1.57v11.01Z"/>
        <path class="cls-1" d="M109.61,3.74v3.43h2.56v1.38h-2.56v3.45h3.45v1.37h-5V2.36h5v1.38h-3.45Z"/>
      </g>
      <g>
        <path class="cls-1" d="M55.82,49.66v4.34h-13.68V19.07h4.94v30.6h8.73Z"/>
        <path class="cls-1" d="M59.81,49.51c-1.05-2.15-1.1-4.04-1.1-4.24v-26.2h4.94v26.2c0,.75.55,4.39,4.09,4.39s4.04-3.59,4.04-4.39v-26.2h4.99v26.2c0,.2-.05,2.1-1.1,4.24-1.45,2.9-4.29,4.49-7.94,4.49s-6.49-1.6-7.94-4.49Z"/>
        <path class="cls-1" d="M80.78,49.51c-1.05-2.15-1.1-4.04-1.1-4.24v-17.47c0-.2.05-2.1,1.1-4.24,1.45-2.9,4.29-4.49,7.94-4.49s6.49,1.6,7.94,4.49c1.05,2.15,1.1,4.04,1.1,4.24v2.2h-4.99v-2.2c0-.8-.5-4.34-4.04-4.34s-4.09,3.59-4.09,4.34v17.47c0,.75.55,4.39,4.09,4.39s4.04-3.59,4.04-4.39v-2.2h4.99v2.2c0,.2-.05,2.1-1.1,4.24-1.45,2.9-4.29,4.49-7.94,4.49s-6.49-1.6-7.94-4.49Z"/>
        <path class="cls-1" d="M105.58,19.07v34.94h-4.94V19.07h4.94Z"/>
        <path class="cls-1" d="M123.15,43.07h-7.29l-2.35,10.93h-5.04l7.49-34.94h7.09l7.49,34.94h-5.04l-2.35-10.93ZM122.2,38.73l-2.7-12.53c-.95,4.24-1.8,8.29-2.7,12.53h5.39Z"/>
        <path class="cls-1" d="M151.5,54h-6.04l-7.09-21.96v21.96h-4.94V19.07h5.99l7.09,21.96v-21.96h4.99v34.94Z"/>
        <path class="cls-1" d="M155.5,49.51c-1.05-2.15-1.1-4.04-1.1-4.24v-17.47c0-.2.05-2.1,1.1-4.24,1.45-2.9,4.29-4.49,7.94-4.49s6.49,1.6,7.94,4.49c1.05,2.15,1.1,4.04,1.1,4.24v17.47c0,.2-.05,2.1-1.1,4.24-1.45,2.9-4.29,4.49-7.94,4.49s-6.49-1.6-7.94-4.49ZM159.34,45.27c0,.75.55,4.39,4.09,4.39s4.04-3.59,4.04-4.39v-17.47c0-.8-.5-4.34-4.04-4.34s-4.09,3.59-4.09,4.34v17.47Z"/>
      </g>
      <g>
        <path class="cls-1" d="M64.21,56.69l-7.49,34.94h-7.09l-7.49-34.94h5.04l5.99,27.75,5.99-27.75h5.04Z"/>
        <path class="cls-1" d="M72.04,56.69v34.94h-4.94v-34.94h4.94Z"/>
        <path class="cls-1" d="M93.01,91.63h-6.04l-7.09-21.96v21.96h-4.94v-34.94h5.99l7.09,21.96v-21.96h4.99v34.94Z"/>
        <path class="cls-1" d="M97,87.14c-1.05-2.15-1.1-4.04-1.1-4.24v-17.47c0-.2.05-2.1,1.1-4.24,1.45-2.9,4.29-4.49,7.94-4.49s6.49,1.6,7.94,4.49c1.05,2.15,1.1,4.04,1.1,4.24v2.2h-4.99v-2.2c0-.8-.5-4.34-4.04-4.34s-4.09,3.59-4.09,4.34v17.47c0,.75.55,4.39,4.09,4.39s4.04-3.59,4.04-4.39v-2.2h4.99v2.2c0,.2-.05,2.1-1.1,4.24-1.45,2.9-4.29,4.49-7.94,4.49s-6.49-1.6-7.94-4.49Z"/>
        <path class="cls-1" d="M121.81,61.08v10.88h8.14v4.39h-8.14v10.93h10.93v4.34h-15.87v-34.94h15.87v4.39h-10.93Z"/>
        <path class="cls-1" d="M153.7,91.63h-6.04l-7.09-21.96v21.96h-4.94v-34.94h5.99l7.09,21.96v-21.96h4.99v34.94Z"/>
        <path class="cls-1" d="M174.66,61.48l-12.88,25.8h12.88v4.34h-18.07v-4.79l12.88-25.75h-12.88v-4.39h18.07v4.79Z"/>
        <path class="cls-1" d="M178.66,87.14c-1.05-2.15-1.1-4.04-1.1-4.24v-17.47c0-.2.05-2.1,1.1-4.24,1.45-2.9,4.29-4.49,7.94-4.49s6.49,1.6,7.94,4.49c1.05,2.15,1.1,4.04,1.1,4.24v17.47c0,.2-.05,2.1-1.1,4.24-1.45,2.9-4.29,4.49-7.94,4.49s-6.49-1.6-7.94-4.49ZM182.5,82.89c0,.75.55,4.39,4.09,4.39s4.04-3.59,4.04-4.39v-17.47c0-.8-.5-4.34-4.04-4.34s-4.09,3.59-4.09,4.34v17.47Z"/>
        <path class="cls-1" d="M216.59,91.63h-6.04l-7.09-21.96v21.96h-4.94v-34.94h5.99l7.09,21.96v-21.96h4.99v34.94Z"/>
        <path class="cls-1" d="M224.43,56.69v34.94h-4.94v-34.94h4.94Z"/>
      </g>
    </g>
  </g>
</svg>