<?xml version="1.0" encoding="UTF-8"?>
<svg id="Livello_2" data-name="Livello 2" xmlns="http://www.w3.org/2000/svg" version="1.1" viewBox="0 0 50 50">
  <defs>
    <style>
      .cls-1 {
        fill: #fbd353;
        stroke-width: 0px;
      }
    </style>
  </defs>
  <g id="content">
    <g id="Line">
      <path class="cls-1" d="M31.9,2H4.7c-.6,0-1,.5-1,1v37.5c0,.6.5,1,1,1h27.1c.6,0,1-.5,1-1v-6.7l-2.4-1.1s.8,4.9-4.5,5.3c-2.4.2-4.3-1.8-4.6-4.1l-.3-2.6c-1.6,0-4.7-2-4.7-5.5v-3h-7.4c-1.4,0-1.3-2.1,0-2.1h7.4s-.2-2.5,1.5-4.2h-8.9c-1.4,0-1.3-2.1,0-2.1h10.4c.4,0,.7.2.9.5.5-.2,1-.2,1.6-.2h5.7l5.3-2.5V3.1c0-.6-.5-1-1-1h0ZM19.3,33.4c1.3,0,1.4,2.1,0,2.1h-10.4c-1.4,0-1.3-2.1,0-2.1h10.4,0ZM8.9,27.1h4.2c1.3,0,1.4,2.1,0,2.1h-4.2c-1.4,0-1.3-2.1,0-2.1ZM27.7,10.4H8.9c-1.4,0-1.3-2.1,0-2.1h18.8c1.3,0,1.4,2.1,0,2.1Z"/>
      <path class="cls-1" d="M25.8,16.9h-3.9c-1.3,0-3.4,1.1-3.5,3.5v5.5c0,2.4,2.2,3.5,3.5,3.5h3.9v-12.4Z"/>
      <path class="cls-1" d="M43.4,25.7s2.9.3,2.9-2.5c0-2.7-2.9-2.5-2.9-2.5v-5.4c0-2.1-2-4.3-4.9-3.1,0,0-10.4,4.8-10.6,4.8v12.4c.2,0,10.6,4.8,10.6,4.8,2.4,1.2,5-.8,4.9-3.1v-5.4h0Z"/>
      <path class="cls-1" d="M28.4,33.2l-.2-1.5-.7-.3h-4.4l.3,2.3c0,.6.5,2.1,2.5,2.2,1.8,0,2.6-1.7,2.5-2.8h0Z"/>
      <path class="cls-1" d="M38.1,8.3h-3.1v3.1s3.1-1.6,4.2-1.7c0,0,.2-1.3-1-1.4Z"/>
      <path class="cls-1" d="M39.2,46.9v-10.4c-.9,0-4.2-1.7-4.2-1.7v5.7c0,1.7-1.4,3.1-3.1,3.1H10v3.1c0,.6.5,1,1,1h27.1c.6,0,1-.5,1-1h0Z"/>
    </g>
  </g>
</svg>