<?xml version="1.0" encoding="UTF-8"?>
<svg id="Livello_2" data-name="Livello 2" xmlns="http://www.w3.org/2000/svg" version="1.1" viewBox="0 0 50 50">
  <defs>
    <style>
      .cls-1 {
        fill: #fbd353;
        stroke-width: 0px;
      }
    </style>
  </defs>
  <g id="content">
    <g id="_05_Certificate" data-name=" 05 Certificate">
      <g>
        <path class="cls-1" d="M47.2,5H2.8C1.3,5,0,6.3,0,7.8v29.6c0,1.6,1.3,2.9,2.8,2.9h19.2v3.9c0,.3.2.6.5.7.3.1.6,0,.8-.2l1.7-1.7,1.7,1.7c.2.2.6.3.8.2.3-.1.5-.4.5-.7v-3.9h19.2c1.5,0,2.9-1.3,2.9-2.9V7.8c0-1.5-1.3-2.8-2.9-2.8h0ZM26.5,42.3l-.9-.9s-.3-.2-.5-.2-.4,0-.6.2l-.9.9v-3.5c.4.3.9.5,1.4.5s1-.2,1.4-.5v3.5h0ZM29.3,33.7c-.8.6-.9,1.3-.9,2.2s0,.4-.2.5-.3.2-.6.2h0c-.8-.1-1.7.2-2.2.9-.2.2-.4.3-.5.3s-.3,0-.5-.3c-.8-1.2-2.3-.9-2.2-.9-.2,0-.4,0-.5-.2-.2-.2-.2-.4-.2-.5h0c.1-.8-.2-1.7-.9-2.2-.1-.1-.3-.3-.3-.5h0c0-.2.1-.4.3-.5,1.2-.8.9-2.3.9-2.2,0-.2,0-.4.2-.5.2-.2.4-.2.5-.2,1.5.3,2.2-.9,2.3-1,.1-.1.3-.1.4-.1s.1,0,.3,0c.3.1.9,1.4,2.4,1.1.2,0,.4,0,.5.2s.2.4.2.5c0,.9.1,1.7.9,2.2.2.1.3.3.3.5s0,.4-.3.5h0ZM45.3,31.5c-1.9.3-3.4,1.8-3.7,3.7h-11.6c.2-.4,1.1-.6,1.1-2s-.3-1.4-.9-1.8c-.2-.1-.3-.4-.2-.6h0c.1-.7-.1-1.4-.6-2-.5-.5-1.2-.7-2-.6h0c-.2,0-.5,0-.6-.2-.4-.6-1.1-.9-1.8-.9s-1.4.4-1.8.9c-.2.3-.6.3-.6.2-.7-.1-1.4.1-1.9.6-.5.5-.7,1.2-.6,2h0c0,.2,0,.5-.2.6h0c-.6.4-.9,1.2-.9,1.8,0,1.2,1,1.8,1.1,2h-11.6c-.3-1.9-1.8-3.4-3.7-3.7V13.8c1.9-.3,3.4-1.8,3.7-3.7h33.2c.3,1.9,1.8,3.4,3.7,3.7v17.7h0Z"/>
        <path class="cls-1" d="M17,14.6h16c.4,0,.8-.3.8-.8s-.3-.8-.8-.8h-16c-.4,0-.8.3-.8.8s.3.8.8.8h0Z"/>
        <path class="cls-1" d="M40.2,17H9.8c-.4,0-.8.3-.8.8s.3.8.8.8h30.4c.4,0,.8-.3.8-.8s-.3-.8-.8-.8Z"/>
        <path class="cls-1" d="M40.2,21H9.8c-.4,0-.8.3-.8.8s.3.8.8.8h30.4c.4,0,.8-.3.8-.8s-.3-.8-.8-.8Z"/>
        <path class="cls-1" d="M40.2,24.9H9.8c-.4,0-.8.3-.8.8s.3.8.8.8h30.4c.4,0,.8-.3.8-.8s-.3-.8-.8-.8Z"/>
        <path class="cls-1" d="M27.7,33.2c0,1.5-1.2,2.7-2.7,2.7s-2.7-1.2-2.7-2.7,1.2-2.7,2.7-2.7,2.7,1.2,2.7,2.7h0Z"/>
      </g>
    </g>
  </g>
</svg>