<?xml version="1.0" encoding="UTF-8"?>
<svg id="Livello_2" data-name="Livello 2" xmlns="http://www.w3.org/2000/svg" version="1.1" viewBox="0 0 50 50">
  <defs>
    <style>
      .cls-1 {
        fill: #fbd353;
        stroke-width: 0px;
      }
    </style>
  </defs>
  <g id="content">
    <g>
      <path class="cls-1" d="M7.7,4.4h0c-.5,0-.9.2-1.3.5-.3.3-.5.8-.5,1.3v29.8c0,1,.8,1.8,1.8,1.8,4.2,0,11.1.9,16,5.9V12.6c0-.3-.1-.6-.2-.9-4-6.3-11.6-7.3-15.8-7.3Z"/>
      <path class="cls-1" d="M44.1,36V6.2c0-.5-.2-.9-.5-1.3-.3-.3-.8-.5-1.3-.5h0c-4.2,0-11.8,1-15.7,7.4-.2.3-.2.6-.2.9v31.1c4.8-5,11.8-5.9,16-5.9,1,0,1.8-.8,1.8-1.8h0Z"/>
      <path class="cls-1" d="M48.2,10.6h-1.3v25.4c0,2.5-2,4.6-4.6,4.6s-9.4.7-13.5,4.6c7.1-1.7,14.6-.6,18.9.4.5.1,1.1,0,1.5-.3s.7-.9.7-1.4V12.4c0-1-.8-1.8-1.8-1.8h0Z"/>
      <path class="cls-1" d="M3.1,36V10.6h-1.3C.8,10.6,0,11.4,0,12.4v31.4c0,.5.2,1.1.7,1.4.4.3,1,.5,1.5.3,4.3-1,11.8-2.1,18.9-.4-4.1-3.9-9.9-4.6-13.5-4.6s-4.6-2-4.6-4.6h0Z"/>
    </g>
  </g>
</svg>