<?xml version="1.0" encoding="UTF-8"?>
<svg id="Livello_2" data-name="Livello 2" xmlns="http://www.w3.org/2000/svg" version="1.1" viewBox="0 0 50 50">
  <defs>
    <style>
      .cls-1 {
        fill: #fbd353;
        fill-rule: evenodd;
        stroke-width: 0px;
      }
    </style>
  </defs>
  <g id="content">
    <path class="cls-1" d="M24.2,29.8h0ZM46.6,10.4L36.9,1.2l-.3.8h0c-.1.3-.3.4-.6.4h-.7v.8c-.1.2-.3.5-.6.5h-.3c0,.1,2,2,2,2h0c0,0,6.1,5.9,6.1,5.9h0c0,0,1.5,1.5,1.5,1.5v-.4c.2-.2.3-.3.5-.4l.9-.3v-.7c.1-.3.3-.5.5-.6l.7-.3h0ZM5.9,13.2l1.5-1.4h0c0,0,6.1-5.9,6.1-5.9h0c0,0,2-2,2-2l-.7-.3c-.2-.1-.4-.3-.4-.6v-.7c-.1,0-1-.3-1-.3-.2,0-.3-.2-.4-.4v-.4c-.1,0-9.9,9.2-9.9,9.2h.3c.2.2.4.4.4.7v.8h.9c.3,0,.5.2.6.4h0l.3.8h0ZM35.1,42.5l-23.4,6.4,24.4-1.2c-.7-.7-1-1.6-1-2.6,0,0,0-2.5,0-2.5ZM8.6,48.3l27-7.3c.4-.1.7,0,.9.4,0,0,0,.1,0,.2v3.4c0,1.4,1.1,2.5,2.5,2.5s2.5-1.1,2.5-2.5V12.5l-5.8-5.5H14.3l-5.8,5.5v35.7ZM32.6,14.5h-15.2c-.5,0-.9.4-.9.9v9.2c0,.5.4.9.9.9h15.2c.5,0,.9-.4.9-.9v-9.2c0-.5-.4-.9-.9-.9ZM32.8,28.4h-15.7c-.4,0-.7.3-.7.7h0c0,.4.3.7.7.7h15.7c.4,0,.7-.3.7-.7h0c0-.4-.3-.7-.7-.7ZM32.8,31.6h-15.7c-.4,0-.7.3-.7.7h0c0,.4.3.7.7.7h15.7c.4,0,.7-.3.7-.7h0c0-.4-.3-.7-.7-.7ZM32.8,34.7h-15.7c-.4,0-.7.3-.7.7h0c0,.4.3.7.7.7h15.7c.4,0,.7-.3.7-.7h0c0-.4-.3-.7-.7-.7Z"/>
  </g>
</svg>