<?xml version="1.0" encoding="UTF-8"?>
<svg id="Livello_2" data-name="Livello 2" xmlns="http://www.w3.org/2000/svg" version="1.1" viewBox="0 0 50 50">
  <defs>
    <style>
      .cls-1 {
        fill: #fbd353;
        fill-rule: evenodd;
        stroke-width: 0px;
      }
    </style>
  </defs>
  <g id="content">
    <g>
      <path class="cls-1" d="M35.3,47.8v-6.8c0-.2.2-.4.4-.4h6.7l-7.2,7.3h0Z"/>
      <path class="cls-1" d="M42.1,2.1H7.9c-.2,0-.4.2-.4.4v44.9c0,.2.2.4.4.4h25.8c.2,0,.4-.2.4-.4v-7.1c0-.5.4-.9.9-.9h7.1c.2,0,.4-.2.4-.4V2.5c0-.2-.2-.4-.4-.4ZM22,8c0-.3.2-.5.5-.5h1.2c1.2,0,2.2,1.1,2.2,2.4v1.2c0,.5-.6.7-.9.3-.5-.6-1.1-.8-2-.8h-.1v3.9c0,1.2-1,2-2,2s-2-.9-2-2,1.7-2.5,3-1.7v-4.9h0ZM16.9,9.5h4.1v1h-4.1c-.3,0-.5-.2-.5-.5s.2-.5.5-.5h0ZM16.9,13.5h1.2c-.1.3-.2.7-.2,1h-1.1c-.3,0-.5-.2-.5-.5s.2-.5.5-.5h0ZM16.9,17.5h6.8v1h-6.8c-.3,0-.5-.2-.5-.5s.2-.5.5-.5h0ZM20.7,22.6h-3.8c-.3,0-.5-.2-.5-.5s.2-.5.5-.5h4c-.1.3-.2.7-.2,1h0ZM31,21.6c0,1.1-.9,2-2,2s-2-.9-2-2,1.7-2.5,3-1.7v-1.2l-4.3.9v3.1c0,1.1-.9,2-2,2s-2-.9-2-2,1.7-2.5,3-1.7v-3.8c0-.2.2-.5.4-.5l5.3-1.1c.3,0,.6.2.6.5v5.5h0ZM33.1,22.6h-1.2c0-.3.2-.7.2-1h1.1c.3,0,.5.2.5.5s-.2.5-.5.5h0ZM33.1,18.6h-1.1v-1h1.1c.3,0,.5.2.5.5s-.2.5-.5.5h0ZM33.1,14.5h-9v-1h9c.3,0,.5.2.5.5s-.2.5-.5.5h0ZM33.1,10.5h-6.1v-1h6.1c.3,0,.5.2.5.5s-.2.5-.5.5h0ZM32.7,27.9h-15.4c-.4,0-.7.3-.7.7h0c0,.4.3.7.7.7h15.4c.4,0,.7-.3.7-.7h0c0-.4-.3-.7-.7-.7ZM32.7,30.7h-15.4c-.4,0-.7.3-.7.7h0c0,.4.3.7.7.7h15.4c.4,0,.7-.3.7-.7h0c0-.4-.3-.7-.7-.7ZM32.7,33.7h-15.4c-.4,0-.7.3-.7.7h0c0,.4.3.7.7.7h15.4c.4,0,.7-.3.7-.7h0c0-.4-.3-.7-.7-.7Z"/>
    </g>
  </g>
</svg>