<?xml version="1.0" encoding="UTF-8"?>
<svg id="Livello_2" data-name="Livello 2" xmlns="http://www.w3.org/2000/svg" version="1.1" viewBox="0 0 50 50">
  <defs>
    <style>
      .cls-1 {
        fill: #fbd353;
        stroke-width: 0px;
      }
    </style>
  </defs>
  <path class="cls-1" d="M0,0v50h50V0H0ZM42.7,22.5l-5.5,5.4c-1.3,1.3-1.9,3.1-1.6,4.9l1.3,7.6c.2,1.4-1.2,2.4-2.4,1.8l-6.8-3.6c-1.6-.9-3.6-.9-5.2,0l-6.8,3.6c-1.2.6-2.7-.4-2.4-1.8l1.3-7.6c.3-1.8-.3-3.6-1.6-4.9l-5.5-5.4c-1-1-.4-2.7.9-2.8l7.6-1.1c1.8-.3,3.4-1.4,4.2-3l3.4-6.9c.6-1.2,2.4-1.2,3,0l3.4,6.9c.8,1.6,2.4,2.8,4.2,3l7.6,1.1c1.4.2,1.9,1.9.9,2.8Z"/>
</svg>