<?xml version="1.0" encoding="UTF-8"?>
<svg id="Livello_2" data-name="Livello 2" xmlns="http://www.w3.org/2000/svg" version="1.1" viewBox="0 0 50 50">
  <defs>
    <style>
      .cls-1 {
        fill: #fbd353;
        stroke-width: 0px;
      }
    </style>
  </defs>
  <g id="content">
    <path class="cls-1" d="M8.9,13C9.6,7,13.7,0,25,0s15.3,6.2,15.3,12.9-3.3,8.7-6,9.9v.2c3.5,1.2,7.9,4.4,7.9,11.8s-4.3,15.2-17.3,15.2c-12.1,0-16.5-7.5-17-13.9h8.8c.7,3.6,3.3,6.8,8.6,6.8s8-3.6,8-8.2-2.8-7.9-8.6-7.9h-4v-7.2h3.4c5.2,0,7.4-1.9,7.4-6.3s-2.3-6.2-6.7-6.2-6.5,2.9-7.2,5.8h-8.5Z"/>
  </g>
</svg>