<?xml version="1.0" encoding="UTF-8"?>
<svg id="Livello_2" data-name="Livello 2" xmlns="http://www.w3.org/2000/svg" version="1.1" viewBox="0 0 50 50">
  <defs>
    <style>
      .cls-1 {
        fill: #fbd353;
        stroke-width: 0px;
      }
    </style>
  </defs>
  <g id="content">
    <path class="cls-1" d="M32.3,12.2c-.7-2.8-2.3-5.1-6.7-5.1-6.9,0-8.9,6.6-9.1,14.4,2-2.8,5.4-5.3,11.2-5.3,8.9,0,14.7,6.6,14.7,16s-6.1,17.8-16.9,17.8S7.7,39.2,7.7,25.6C7.6,12.8,11.9,0,25.9,0s14.5,6.5,15,12.2h-8.7ZM33.3,32.9c0-4.8-1.8-9.5-8-9.5s-8.2,3.1-8.2,9.3,1.9,10,8.1,10,8.1-4.5,8.1-9.7Z"/>
  </g>
</svg>