<?xml version="1.0" encoding="UTF-8"?>
<svg id="Livello_2" data-name="Livello 2" xmlns="http://www.w3.org/2000/svg" version="1.1" viewBox="0 0 50 50">
  <defs>
    <style>
      .cls-1 {
        fill: #fbd353;
        stroke-width: 0px;
      }
    </style>
  </defs>
  <g id="content">
    <path class="cls-1" d="M7.4,35.3c0-6.4,4.3-10.2,8-11.8-3.8-2.2-6.1-5.3-6.1-10.1,0-7.9,5.7-13.4,16-13.4s15.5,5.2,15.5,13.3-2.8,8.4-6.2,9.8c3.8,1.3,7.9,5.6,7.9,12,0,9.7-7.5,15-18,15s-17.2-5.3-17.2-14.7ZM33.6,34.9c0-5.3-3.4-7.8-8.6-7.8s-8.6,3.2-8.6,7.8,3.4,7.9,8.7,7.9,8.5-2.5,8.5-7.9h0ZM17.9,13.6c0,3.5,2.4,6.2,7.3,6.2s7.1-2,7.1-6.1-2.4-6.5-7.2-6.5-7.2,2.4-7.2,6.5h0Z"/>
  </g>
</svg>