<?xml version="1.0" encoding="UTF-8"?>
<svg id="Livello_2" data-name="Livello 2" xmlns="http://www.w3.org/2000/svg" version="1.1" viewBox="0 0 50 94.3">
  <defs>
    <style>
      .cls-1 {
        fill: #fff;
      }

      .cls-1, .cls-2 {
        stroke-width: 0px;
      }

      .cls-2 {
        fill: #fbd353;
      }
    </style>
  </defs>
  <g>
    <rect class="cls-2" x="0" y="44.1" width="50.1" height="50.1"/>
    <path class="cls-1" d="M23.5,85v-23.2c-1.4.7-4,1.2-5.5,1.3v-5c2.9-.5,5.8-2.2,7.5-4.2h4.7v31.1h-6.7Z"/>
  </g>
  <g>
    <path class="cls-2" d="M45.4,30.2l-.9,3.9c-.2.8-.9,1.4-1.7,1.4H7.3c-.8,0-1.5-.6-1.7-1.4l-.9-3.9h40.7Z"/>
    <path class="cls-2" d="M49.8,11.1l-3.6,15.5H3.8L.2,11.1c-.2-.7.1-1.4.7-1.8.6-.4,1.3-.5,1.9-.1l11,6.3L23.5.9c.3-.5.8-.8,1.4-.8.6,0,1.1.2,1.5.7l11.4,14.6,9.3-6.2c.6-.4,1.4-.4,2,0,.6.4.9,1.1.7,1.9h0Z"/>
  </g>
</svg>