<?xml version="1.0" encoding="UTF-8"?>
<svg id="Livello_2" data-name="Livello 2" xmlns="http://www.w3.org/2000/svg" version="1.1" viewBox="0 0 50 50">
  <defs>
    <style>
      .cls-1 {
        fill: #000;
        stroke-width: 0px;
      }
    </style>
  </defs>
  <path class="cls-1" d="M1.5,20.6h3.1c0-1,.2-2,.5-2.9H1.5c-.8,0-1.5.7-1.5,1.5s.7,1.5,1.5,1.5Z"/>
  <path class="cls-1" d="M48.5,17.7h-26.4v2.9h26.4c.8,0,1.5-.7,1.5-1.5s-.7-1.5-1.5-1.5Z"/>
  <path class="cls-1" d="M30.8,8.9h17.8c.8,0,1.5-.7,1.5-1.5s-.7-1.5-1.5-1.5h-17.8c0,.8,0,1.2,0,2.9Z"/>
  <path class="cls-1" d="M1.5,8.9h11.9v-2.9H1.5c-.8,0-1.5.7-1.5,1.5s.7,1.5,1.5,1.5Z"/>
  <path class="cls-1" d="M7.5,20.7c0,3.2,2.6,5.9,5.9,5.9s5.9-2.4,5.9-6v-11.5h.3c2.5,0,4.2.7,5.7,2.3.9,1,2.5.3,2.5-1v-3.5C27.8,3.3,25,.2,21.4,0,21.1,0,17.8,0,17.8,0,17,0,16.3.7,16.3,1.5v14.2c-3.9-2.2-8.8.6-8.8,5.1Z"/>
  <path class="cls-1" d="M0,42.6c0,.8.7,1.5,1.5,1.5h11.1c0-1,.2-2,.5-2.9H1.5C.7,41.1,0,41.8,0,42.6Z"/>
  <path class="cls-1" d="M48.5,41.1h-3c0,1-.2,2-.5,2.9h3.5c.8,0,1.5-.7,1.5-1.5s-.7-1.5-1.5-1.5Z"/>
  <path class="cls-1" d="M1.5,32.3h19.9v-2.9H1.5c-.8,0-1.5.7-1.5,1.5s.7,1.5,1.5,1.5Z"/>
  <path class="cls-1" d="M48.5,29.4h-3v2.9h3c.8,0,1.5-.7,1.5-1.5s-.7-1.5-1.5-1.5Z"/>
  <path class="cls-1" d="M40.8,23.6l-15.4,3c-.7.1-1.2.7-1.2,1.4v11c-3.9-2.2-8.8.5-8.8,5.1s2.6,5.9,5.9,5.9,5.9-2.6,5.9-5.9v-9.1l12.5-2.5v3.5c-3.9-2.2-8.8.5-8.8,5.1s2.6,5.9,5.9,5.9,5.9-2.6,5.9-5.9v-16.1c0-.9-.8-1.6-1.7-1.4h0Z"/>
</svg>