<?xml version="1.0" encoding="UTF-8"?>
<svg id="Livello_2" data-name="Livello 2" xmlns="http://www.w3.org/2000/svg" version="1.1" viewBox="0 0 50 50">
  <defs>
    <style>
      .cls-1 {
        fill: #fff;
      }

      .cls-1, .cls-2 {
        stroke-width: 0px;
      }

      .cls-2 {
        fill: #fbd353;
      }
    </style>
  </defs>
  <rect class="cls-2" y="0" width="50" height="50"/>
  <path class="cls-1" d="M14.5,17.6c.4-3.8,3.1-8.3,10.3-8.3s9.8,4,9.8,8.3-2.1,5.6-3.9,6.3h0c2.2.9,5.1,3,5.1,7.7s-2.8,9.8-11.1,9.8-10.6-4.8-10.9-8.9h5.6c.5,2.3,2.1,4.4,5.5,4.4s5.1-2.3,5.1-5.3-1.8-5.1-5.5-5.1h-2.5v-4.6h2.2c3.4,0,4.7-1.2,4.7-4s-1.4-4-4.3-4-4.2,1.8-4.6,3.7h-5.5Z"/>
</svg>