<?xml version="1.0" encoding="UTF-8"?>
<svg id="Livello_2" data-name="Livello 2" xmlns="http://www.w3.org/2000/svg" version="1.1" viewBox="0 0 10 10">
  <defs>
    <style>
      .cls-1 {
        fill: #5a5555;
      }

      .cls-1, .cls-2, .cls-3 {
        stroke-width: 0px;
      }

      .cls-2 {
        fill: #fbd353;
      }

      .cls-3 {
        fill: #eee9e5;
      }
    </style>
  </defs>
  <g id="content">
    <g>
      <path class="cls-3" d="M8.5.3v9.5c0,.1-.1.3-.3.3H1.7c-.1,0-.3-.1-.3-.3V.3c0-.1.1-.3.3-.3h6.6c.1,0,.3.1.3.3h0Z"/>
      <g>
        <path class="cls-2" d="M2.1,2.9h5.8c0,0,.2,0,.2-.2s0-.2-.2-.2H2.1c0,0-.2,0-.2.2s0,.2.2.2Z"/>
        <path class="cls-2" d="M7.9,3.4H2.1c0,0-.2,0-.2.2s0,.2.2.2h5.8c0,0,.2,0,.2-.2s0-.2-.2-.2Z"/>
        <path class="cls-2" d="M7.9,4.3H2.1c0,0-.2,0-.2.2s0,.2.2.2h5.8c0,0,.2,0,.2-.2s0-.2-.2-.2Z"/>
        <path class="cls-2" d="M7.9,5.1H2.1c0,0-.2,0-.2.2s0,.2.2.2h5.8c0,0,.2,0,.2-.2s0-.2-.2-.2Z"/>
        <path class="cls-2" d="M7.9,5.9H2.1c0,0-.2,0-.2.2s0,.2.2.2h5.8c0,0,.2,0,.2-.2s0-.2-.2-.2Z"/>
      </g>
      <g>
        <path class="cls-1" d="M4.2,3.9l-.5-.4s-.1,0-.2,0c0,0,0,0,0,.1v1.9c-.1,0-.2-.1-.4-.1-.4,0-.7.3-.7.7s.3.7.7.7.7-.3.7-.7v-2.2l.2.2s.2,0,.2,0c0,0,0-.2,0-.2h0Z"/>
        <path class="cls-1" d="M6.2,2.2l-.5-.4s-.1,0-.2,0c0,0,0,0,0,.1v1.9c-.1,0-.2-.1-.4-.1-.4,0-.7.3-.7.7s.3.7.7.7.7-.3.7-.7v-2.2l.2.2s.2,0,.2,0c0,0,0-.2,0-.2h0Z"/>
        <path class="cls-1" d="M5.3,8h2.5c0,0,.2,0,.2-.2s0-.2-.2-.2h-2.5c0,0-.2,0-.2.2s0,.2.2.2Z"/>
        <path class="cls-1" d="M7.9,8.4h-2.5c0,0-.2,0-.2.2s0,.2.2.2h2.5c0,0,.2,0,.2-.2s0-.2-.2-.2Z"/>
      </g>
    </g>
  </g>
</svg>